# xmcd
#
# Track frame offsets:
#	182
#	14847
#	28085
#	42165
#	54762
#	71915
#	85497
#	97910
#	112827
#	129040
#	141870
#	158315
#	171430
#	184787
#	198845
#	215127
#
# Disc length: 3036
#
# Revision: 2
# Processed by: cddbd v1.5.1PL0 Copyright (c) Steve Scherf et al.
# Submitted via: audiograbber 1.82.02
# Normalized: r1:DSETVAR1
#
DISCID=d60bda10
DTITLE=Various Artist - Trucker Hit-Express CD 1
DYEAR=1900
DGENRE=Country
TTITLE0=Tom Astor - Ein Grabstein überall
TTITLE1=Jonny Hill - Ich bin wieder zuhaus
TTITLE2=Tom Astor - Mit dem Truck durch Texas fahrn´
TTITLE3=Ralf Paulsen - Freie Fahrt für freie Europäer
TTITLE4=Nashville Music Company - Country in good old Germany
TTITLE5=Tom Astor - Ich trink noch ein Glas mit meinen Freunden
TTITLE6=Dä druije Piter - Un janz Kölle steht im Stau
TTITLE7=Tom Astor - Dies Lied ist Für die Mädchen
TTITLE8=Jonny Hill - Seine freunde sind die Träume
TTITLE9=Tom Astor - Und so bin ixh auf den Hund gekommen
TTITLE10=Dagmar-The Lady of Country - Ich fahr nen Laster wie Papa
TTITLE11=Tom Astor and Wild Rose - Home sweet Highway
TTITLE12=Nashville Music Company - Wertvolle Fracht
TTITLE13=Tom Astor - Das Glück hat ihn nie gelliebt
TTITLE14=Gudrun Lange and Kactus - Solange ich noch Träume hab
TTITLE15=Jim Erhardt - Heute fährt er für Geld
EXTD=Ranger 781021\n5073/5074
EXTT0=
EXTT1=
EXTT2=
EXTT3=
EXTT4=
EXTT5=
EXTT6=
EXTT7=
EXTT8=
EXTT9=
EXTT10=
EXTT11=
EXTT12=
EXTT13=
EXTT14=
EXTT15=
PLAYORDER=
